<svg xmlns="http://www.w3.org/2000/svg" viewBox="0 0 206 25"><path d="M198,25a8,8,0,0,1-2-15.75V2H163V9.58a8,8,0,1,1-5-.33V2H124V9.25a8,8,0,1,1-5,.33V2H86V9.25a8,8,0,1,1-5,.33V2H48V9.25a8,8,0,1,1-5,.33V2H11V9.58A8,8,0,1,1,0,17,8,8,0,0,1,6,9.25V.07H8V10.94l-.86.12a6,6,0,1,0,2.57.19L9,11V0H45V11l-.71.21a6,6,0,1,0,2.57-.19L46,10.94V0H83V11l-.71.21a6,6,0,1,0,2.57-.19L84,10.94V0h37V11l-.71.21a6,6,0,1,0,2.57-.19l-.86-.12V0h38V10.94l-.86.12a6,6,0,1,0,2.57.19L161,11V0h37V10.94l-.86.12a6,6,0,1,0,2.57.19L199,11V.07h2V9.58A8,8,0,0,1,198,25Z" style="fill:#c3abcc"/></svg>